<?xml version="1.0" encoding="iso-8859-1"?>
<!-- Generator: Adobe Illustrator 13.0.0, SVG Export Plug-In . SVG Version: 6.00 Build 14948)  -->
<!DOCTYPE svg PUBLIC "-//W3C//DTD SVG 1.1//EN" "http://www.w3.org/Graphics/SVG/1.1/DTD/svg11.dtd">
<svg version="1.1" id="Layer_1" xmlns="http://www.w3.org/2000/svg" xmlns:xlink="http://www.w3.org/1999/xlink" x="0px" y="0px"
	 width="17.992px" height="24.043px" viewBox="0 0 17.992 24.043" style="enable-background:new 0 0 17.992 24.043;"
	 xml:space="preserve">
<path style="fill:#FFFFFF;" d="M14.992,3.049h-1.498c0-4.065-8.996-4.065-8.996,0H2.999C1.343,3.049,0,4.391,0,6.047v14.999
	c0,1.656,1.343,2.998,2.999,2.998h11.993c1.656,0,3-1.342,3-2.998V6.047C17.992,4.391,16.648,3.049,14.992,3.049 M8.996,1.549
	c1.656,0,2.998,0.464,2.998,1.5H5.997C5.997,2.013,7.34,1.549,8.996,1.549 M16.492,21.045c0,0.828-0.672,1.498-1.5,1.498H2.999
	c-0.828,0-1.5-0.67-1.5-1.498v-1.5h14.993V21.045 M16.492,18.045H1.499V6.047c0-0.828,0.672-1.5,1.5-1.5h1.499v4.5h1.499v-4.5h5.997
	v4.5h1.5v-4.5h1.498c0.828,0,1.5,0.671,1.5,1.5V18.045"/>
</svg>
