<?xml version="1.0" encoding="utf-8"?>
<!-- Generator: Adobe Illustrator 13.0.0, SVG Export Plug-In . SVG Version: 6.00 Build 14948)  -->
<!DOCTYPE svg PUBLIC "-//W3C//DTD SVG 1.1//EN" "http://www.w3.org/Graphics/SVG/1.1/DTD/svg11.dtd">
<svg version="1.1" id="Layer_1" xmlns="http://www.w3.org/2000/svg" xmlns:xlink="http://www.w3.org/1999/xlink" x="0px" y="0px"
	 width="54.629px" height="24.636px" viewBox="0 0 54.629 24.636" enable-background="new 0 0 54.629 24.636" xml:space="preserve">
<g>
	<path fill="#C7B299" d="M22.816,1.804c-2.403-2.405-6.34-2.405-8.743,0L9.352,6.526c1.619-0.46,3.375-0.34,4.909,0.376l2.454-2.456
		c0.954-0.955,2.505-0.955,3.46,0c0.954,0.955,0.954,2.506,0,3.462c-1.435,1.436-2.87,2.872-4.305,4.307
		c-1.174,1.174-2.774,2.301-4.268,0.808l-2.643,2.646c1.615,1.615,4.055,2.185,6.231,1.512c2.342-0.725,3.986-2.985,5.656-4.656
		c1.597-1.598,3.35-3.039,3.713-5.394C24.857,5.193,24.202,3.19,22.816,1.804"/>
	<path fill="#C7B299" d="M10.255,17.833l-2.352,2.354c-0.955,0.955-2.505,0.955-3.46,0c-0.955-0.957-0.955-2.508,0-3.463
		l5.113-5.115c0.954-0.956,2.505-0.956,3.46,0l2.642-2.644c-1.634-1.632-4.108-2.205-6.301-1.492
		c-2.294,0.746-3.958,3.009-5.605,4.658c-1.594,1.595-3.321,3.027-3.681,5.378c-0.296,1.933,0.346,3.938,1.73,5.322
		c2.403,2.406,6.34,2.406,8.743,0l4.618-4.672C12.811,18.705,12.266,18.636,10.255,17.833"/>
</g>
<g>
	<path fill="#FFFFFF" d="M52.816,1.804c-2.402-2.405-6.34-2.405-8.742,0l-4.723,4.724c1.619-0.46,3.375-0.34,4.908,0.376
		l2.455-2.456c0.953-0.955,2.504-0.955,3.459,0c0.955,0.955,0.955,2.506,0,3.462c-1.435,1.436-2.87,2.872-4.306,4.308
		c-1.173,1.173-2.774,2.303-4.267,0.807l-2.643,2.645c1.616,1.616,4.053,2.186,6.231,1.512c2.342-0.725,3.984-2.984,5.655-4.656
		c1.598-1.598,3.35-3.039,3.713-5.395C54.857,5.193,54.202,3.19,52.816,1.804"/>
	<path fill="#FFFFFF" d="M40.253,17.833l-2.352,2.354c-0.955,0.955-2.506,0.955-3.461,0c-0.953-0.957-0.953-2.508,0-3.463
		l5.113-5.115c0.955-0.956,2.506-0.956,3.461,0l2.643-2.644c-1.635-1.631-4.107-2.207-6.302-1.493
		c-2.294,0.746-3.959,3.011-5.605,4.659c-1.593,1.595-3.32,3.027-3.68,5.377c-0.296,1.933,0.346,3.938,1.729,5.323
		c2.402,2.404,6.34,2.404,8.744,0l4.617-4.672C42.81,18.705,42.265,18.636,40.253,17.833"/>
</g>
</svg>
