<?xml version="1.0" encoding="utf-8"?>
<!-- Generator: Adobe Illustrator 13.0.0, SVG Export Plug-In . SVG Version: 6.00 Build 14948)  -->
<!DOCTYPE svg PUBLIC "-//W3C//DTD SVG 1.1//EN" "http://www.w3.org/Graphics/SVG/1.1/DTD/svg11.dtd">
<svg version="1.1" id="Layer_1" xmlns="http://www.w3.org/2000/svg" xmlns:xlink="http://www.w3.org/1999/xlink" x="0px" y="0px"
	 width="60px" height="30px" viewBox="-2.92 -3.27 60 30" enable-background="new -2.92 -3.27 60 30" xml:space="preserve">
<rect x="-2.92" y="-3.27" fill="none" width="30" height="30"/>
<path fill="#C7B299" d="M10.526,3.896c-0.726,0-1.315,0.582-1.315,1.295c0,0.718,0.59,1.297,1.315,1.297
	c1.607,0,3.042,0.885,3.748,2.309c0.229,0.461,0.695,0.728,1.184,0.728c0.193,0,0.391-0.043,0.576-0.13
	c0.652-0.314,0.925-1.09,0.605-1.734C15.49,5.339,13.146,3.896,10.526,3.896z M24.678,21.694l-4.384-4.315
	c1.298-1.799,2.067-3.989,2.067-6.359C22.363,4.942,17.348,0,11.182,0S0,4.942,0,11.017c0,6.072,5.016,11.016,11.182,11.016
	c2.576,0,4.943-0.871,6.835-2.318l4.334,4.271c0.321,0.316,0.744,0.475,1.164,0.475s0.842-0.154,1.162-0.475
	C25.32,23.354,25.32,22.328,24.678,21.694z M2.632,11.017c0-4.646,3.836-8.424,8.551-8.424c4.713,0,8.549,3.779,8.549,8.424
	c0,1.932-0.67,3.71-1.785,5.132c-0.369,0.472-0.783,0.904-1.243,1.289c-1.491,1.246-3.417,2.002-5.521,2.002
	C6.467,19.438,2.632,15.662,2.632,11.017z"/>
<rect x="27.08" y="-3.27" fill="none" width="30" height="30"/>
<path fill="#FFFFFF" d="M40.526,3.896c-0.726,0-1.315,0.582-1.315,1.295c0,0.718,0.59,1.297,1.315,1.297
	c1.606,0,3.042,0.885,3.748,2.309c0.229,0.461,0.694,0.728,1.185,0.728c0.192,0,0.391-0.043,0.576-0.13
	c0.651-0.314,0.924-1.09,0.604-1.734C45.49,5.339,43.146,3.896,40.526,3.896z M54.678,21.694l-4.384-4.315
	c1.297-1.799,2.066-3.989,2.066-6.359C52.363,4.942,47.348,0,41.182,0S30,4.942,30,11.017c0,6.072,5.017,11.016,11.183,11.016
	c2.575,0,4.942-0.871,6.835-2.318l4.334,4.271c0.32,0.316,0.744,0.475,1.164,0.475s0.842-0.154,1.162-0.475
	C55.32,23.354,55.32,22.328,54.678,21.694z M32.632,11.017c0-4.646,3.836-8.424,8.551-8.424c4.713,0,8.549,3.779,8.549,8.424
	c0,1.932-0.67,3.71-1.785,5.132c-0.369,0.472-0.783,0.904-1.242,1.289c-1.492,1.246-3.418,2.002-5.521,2.002
	C36.466,19.438,32.632,15.662,32.632,11.017z"/>
</svg>
