<?xml version="1.0" encoding="utf-8"?>
<!-- Generator: Adobe Illustrator 13.0.0, SVG Export Plug-In . SVG Version: 6.00 Build 14948)  -->
<!DOCTYPE svg PUBLIC "-//W3C//DTD SVG 1.1//EN" "http://www.w3.org/Graphics/SVG/1.1/DTD/svg11.dtd">
<svg version="1.1" id="Layer_1" xmlns="http://www.w3.org/2000/svg" xmlns:xlink="http://www.w3.org/1999/xlink" x="0px" y="0px"
	 width="70.001px" height="70.001px" viewBox="0 0 70.001 70.001" enable-background="new 0 0 70.001 70.001" xml:space="preserve">
<g>
	<defs>
		<path id="SVGID_1_" d="M34.938,70.001c-5.864,0.001-11.763-1.462-17.106-4.471c-0.991-0.558-1.343-1.814-0.784-2.805
			c0.557-0.992,1.813-1.344,2.806-0.785c12.018,6.766,27.23,4.674,36.994-5.092c12.046-12.047,12.046-31.648,0-43.695
			c-12.047-12.049-31.649-12.049-43.696,0C7.024,19.281,3.734,27.858,4.154,36.51c0.205,4.236,1.283,8.423,3.166,12.225
			c0.966,1.952,2.142,3.8,3.499,5.503c1.107,1.391,4.252,3.606,2.333,5.525c-0.803,0.804-2.108,0.804-2.913,0
			c-13.653-13.654-13.653-35.869,0-49.523c13.653-13.652,35.867-13.653,49.521,0c13.653,13.654,13.653,35.869,0,49.523
			C53.035,66.487,44.027,70.001,34.938,70.001"/>
	</defs>
	<use xlink:href="#SVGID_1_"  overflow="visible" fill="#FFFFFF"/>
	<clipPath id="SVGID_2_">
		<use xlink:href="#SVGID_1_"  overflow="visible"/>
	</clipPath>
	<path clip-path="url(#SVGID_2_)" fill="#FFFFFF" d="M29.936,51.822c-0.296,0-0.594-0.063-0.873-0.193
		c-0.724-0.339-1.187-1.066-1.187-1.866V20.238c0-0.8,0.462-1.527,1.187-1.866c0.723-0.339,1.579-0.228,2.192,0.283l17.714,14.764
		c0.975,0.811,0.975,2.354,0,3.164L31.254,51.346C30.877,51.66,30.409,51.822,29.936,51.822 M31.996,24.636v20.729l12.438-10.364
		L31.996,24.636"/>
</g>
</svg>
