<?xml version="1.0" encoding="iso-8859-1"?>
<!-- Generator: Adobe Illustrator 13.0.0, SVG Export Plug-In . SVG Version: 6.00 Build 14948)  -->
<!DOCTYPE svg PUBLIC "-//W3C//DTD SVG 1.1//EN" "http://www.w3.org/Graphics/SVG/1.1/DTD/svg11.dtd">
<svg version="1.1" id="Layer_1" xmlns="http://www.w3.org/2000/svg" xmlns:xlink="http://www.w3.org/1999/xlink" x="0px" y="0px"
	 width="23.986px" height="23.992px" viewBox="0 0 23.986 23.992" style="enable-background:new 0 0 23.986 23.992;"
	 xml:space="preserve">
<path style="fill:#FFFFFF;" d="M23.761,22.684l-6.193-6.097c1.622-1.76,2.618-4.092,2.618-6.656C20.185,4.446,15.667,0,10.093,0
	C4.518,0,0,4.446,0,9.932c0,5.487,4.518,9.935,10.093,9.935c2.408,0,4.617-0.836,6.352-2.22l6.219,6.119
	c0.304,0.299,0.795,0.299,1.099,0C24.063,23.466,24.063,22.982,23.761,22.684z M10.093,18.335c-4.717,0-8.541-3.762-8.541-8.404
	c0-4.641,3.824-8.404,8.541-8.404c4.716,0,8.539,3.763,8.539,8.404C18.632,14.574,14.809,18.335,10.093,18.335z"/>
</svg>
